<svg width="383" height="74" viewBox="0 0 383 74" fill="none" xmlns="http://www.w3.org/2000/svg">
<path d="M290.285 35.6692H293.589C294.47 35.6692 295.246 35.8511 295.906 36.215C296.567 36.5789 297.084 37.0959 297.448 37.7662C297.812 38.4365 298.003 39.2409 298.003 40.1697C298.003 41.0986 297.821 41.9029 297.448 42.5732C297.084 43.2435 296.567 43.7702 295.906 44.1245C295.246 44.4883 294.47 44.6702 293.589 44.6702H290.285V35.6692ZM291.434 36.5884V43.7702H293.57C294.24 43.7702 294.815 43.6265 295.313 43.3392C295.801 43.052 296.184 42.6402 296.452 42.104C296.72 41.5677 296.854 40.9262 296.854 40.1697C296.854 39.4132 296.72 38.7717 296.452 38.2354C296.184 37.6992 295.811 37.2875 295.313 37.0002C294.824 36.7129 294.24 36.5693 293.57 36.5693H291.434V36.5884Z" fill="#173035"/>
<path d="M299.076 41.4911C299.076 40.409 299.353 39.576 299.918 39.011C300.483 38.446 301.23 38.1587 302.169 38.1587C303.117 38.1587 303.844 38.4365 304.352 38.9823C304.859 39.5281 305.108 40.275 305.108 41.2134V41.7305H300.139C300.148 42.4295 300.34 42.9849 300.694 43.3966C301.048 43.8084 301.546 44.0095 302.159 44.0095C302.552 44.0095 302.877 43.9424 303.136 43.8084C303.394 43.6743 303.586 43.5019 303.729 43.3009C303.863 43.0998 303.95 42.8987 303.988 42.6976H304.974V42.8891C304.936 43.0902 304.859 43.2913 304.735 43.5211C304.61 43.7509 304.448 43.9616 304.227 44.1627C304.007 44.3637 303.729 44.5265 303.394 44.6606C303.059 44.7851 302.647 44.8521 302.178 44.8521C301.24 44.8521 300.483 44.5648 299.918 43.9903C299.363 43.4062 299.076 42.5731 299.076 41.4911ZM300.158 40.9261H304.055C304.055 40.342 303.892 39.8824 303.567 39.5281C303.251 39.1738 302.781 38.9918 302.159 38.9918C301.546 38.9918 301.077 39.1738 300.732 39.5281C300.397 39.8824 300.206 40.3516 300.158 40.9261Z" fill="#173035"/>
<path d="M305.722 39.1356V38.3121H307.282V37.2396C307.282 36.7225 307.426 36.3299 307.704 36.0714C307.991 35.8129 308.393 35.6788 308.92 35.6788H312.338V36.4927H308.479L308.384 36.5885V38.3121H312.348V44.6895H311.247V39.1356H308.384V44.6895H307.282V39.1356H305.722Z" fill="#173035"/>
<path d="M314.157 38.312H315.229V39.2121H315.354C315.431 39.0781 315.545 38.9344 315.708 38.7717C315.871 38.6089 316.091 38.4748 316.379 38.3503C316.666 38.2258 317.03 38.1684 317.489 38.1684C318.198 38.1684 318.772 38.3599 319.222 38.7333C319.673 39.1164 319.902 39.6909 319.902 40.4569V44.6894H318.801V40.5719C318.801 40.0356 318.658 39.6526 318.37 39.4036C318.083 39.1547 317.7 39.0302 317.24 39.0302C316.896 39.0302 316.57 39.1068 316.273 39.26C315.976 39.4132 315.737 39.643 315.555 39.9494C315.373 40.2559 315.277 40.6485 315.277 41.1273V44.6894H314.176V38.312H314.157Z" fill="#173035"/>
<path d="M321.56 36.0139H322.833V37.2204H321.56V36.0139ZM321.636 38.312H322.737V44.6894H321.636V38.312Z" fill="#173035"/>
<path d="M324.566 38.312H325.639V39.2121H325.763C325.84 39.0781 325.955 38.9344 326.117 38.7717C326.28 38.6089 326.5 38.4748 326.788 38.3503C327.075 38.2258 327.439 38.1684 327.898 38.1684C328.607 38.1684 329.181 38.3599 329.632 38.7333C330.082 39.1164 330.311 39.6909 330.311 40.4569V44.6894H329.21V40.5719C329.21 40.0356 329.067 39.6526 328.779 39.4036C328.492 39.1547 328.109 39.0302 327.649 39.0302C327.305 39.0302 326.979 39.1068 326.682 39.26C326.385 39.4132 326.146 39.643 325.964 39.9494C325.782 40.2559 325.686 40.6485 325.686 41.1273V44.6894H324.585V38.312H324.566Z" fill="#173035"/>
<path d="M331.661 41.3954C331.661 40.6772 331.785 40.0739 332.044 39.5951C332.302 39.1164 332.647 38.7525 333.088 38.5131C333.528 38.2737 334.017 38.1492 334.572 38.1492C335.166 38.1492 335.625 38.2641 335.951 38.4844C336.276 38.7046 336.516 38.9344 336.659 39.1738H336.784L336.975 38.2929H337.837V44.4213C337.837 45.3405 337.588 46.0587 337.09 46.5662C336.592 47.0737 335.836 47.3227 334.821 47.3227C334.16 47.3227 333.614 47.2269 333.183 47.0258C332.743 46.8248 332.417 46.5662 332.188 46.2502C331.958 45.9342 331.833 45.5991 331.795 45.2352V45.0437H332.82C332.848 45.2926 332.925 45.532 333.069 45.7523C333.212 45.9725 333.423 46.1449 333.71 46.2789C333.997 46.413 334.371 46.48 334.821 46.48C335.501 46.48 335.989 46.3077 336.295 45.9629C336.592 45.6182 336.746 45.1203 336.746 44.4596V43.6552H336.621C336.468 43.885 336.238 44.0957 335.922 44.3064C335.606 44.5075 335.156 44.6128 334.581 44.6128C334.026 44.6128 333.538 44.4979 333.097 44.2585C332.657 44.0191 332.312 43.6648 332.053 43.186C331.795 42.7168 331.661 42.1135 331.661 41.3954ZM332.772 41.3954C332.772 42.1614 332.954 42.7455 333.327 43.1477C333.7 43.5499 334.179 43.7605 334.773 43.7605C335.367 43.7605 335.855 43.5594 336.228 43.1477C336.602 42.7455 336.784 42.1518 336.784 41.3954C336.784 40.6293 336.602 40.0452 336.228 39.643C335.855 39.2408 335.376 39.0302 334.773 39.0302C334.17 39.0302 333.691 39.2313 333.327 39.643C332.963 40.0548 332.772 40.6389 332.772 41.3954Z" fill="#173035"/>
<path d="M342.186 38.312H343.747V36.5597H344.848V38.312H346.753V39.1355H344.848V43.7318L344.944 43.8276H346.734V44.6798H345.384C344.857 44.6798 344.455 44.5457 344.168 44.2872C343.881 44.0286 343.747 43.636 343.747 43.1189V39.1259H342.186V38.312Z" fill="#173035"/>
<path d="M348.074 35.6692H349.175V39.1643H349.3C349.367 39.0493 349.482 38.9153 349.635 38.7525C349.788 38.5993 350.008 38.4557 350.295 38.3408C350.583 38.2259 350.947 38.1588 351.397 38.1588C352.105 38.1588 352.68 38.3503 353.13 38.7238C353.58 39.1068 353.81 39.6814 353.81 40.4474V44.6798H352.709V40.5623C352.709 40.0261 352.565 39.6431 352.278 39.3941C351.99 39.1451 351.607 39.0206 351.148 39.0206C350.803 39.0206 350.477 39.0973 350.181 39.2505C349.884 39.4037 349.644 39.6335 349.462 39.9399C349.28 40.2463 349.185 40.6389 349.185 41.1177V44.6798H348.084V35.6692H348.074Z" fill="#173035"/>
<path d="M355.179 41.4911C355.179 40.409 355.457 39.576 356.022 39.011C356.587 38.446 357.334 38.1587 358.272 38.1587C359.22 38.1587 359.948 38.4365 360.456 38.9823C360.963 39.5281 361.212 40.275 361.212 41.2134V41.7305H356.242C356.252 42.4295 356.443 42.9849 356.798 43.3966C357.152 43.8084 357.65 44.0095 358.263 44.0095C358.655 44.0095 358.981 43.9424 359.239 43.8084C359.498 43.6743 359.69 43.5019 359.833 43.3009C359.967 43.0998 360.053 42.8987 360.092 42.6976H361.078V42.8891C361.04 43.0902 360.963 43.2913 360.839 43.5211C360.714 43.7509 360.551 43.9616 360.331 44.1627C360.111 44.3637 359.833 44.5265 359.498 44.6606C359.163 44.7851 358.751 44.8521 358.282 44.8521C357.344 44.8521 356.587 44.5648 356.022 43.9903C355.467 43.4062 355.179 42.5731 355.179 41.4911ZM356.261 40.9261H360.159C360.159 40.342 359.996 39.8824 359.67 39.5281C359.354 39.1738 358.885 38.9918 358.263 38.9918C357.65 38.9918 357.181 39.1738 356.836 39.5281C356.501 39.8824 356.3 40.3516 356.261 40.9261Z" fill="#173035"/>
<path d="M296.04 60.7477H294.939V57.3771H294.815C294.671 57.6165 294.441 57.8463 294.106 58.057C293.781 58.2677 293.311 58.3826 292.708 58.3826C292.153 58.3826 291.664 58.2581 291.224 58.0091C290.783 57.7602 290.429 57.3867 290.18 56.8983C289.922 56.4004 289.797 55.7876 289.797 55.0598C289.797 54.3225 289.922 53.7097 290.18 53.2117C290.439 52.7234 290.783 52.3499 291.224 52.101C291.664 51.852 292.162 51.7275 292.708 51.7275C293.321 51.7275 293.8 51.8424 294.135 52.0722C294.47 52.302 294.709 52.5414 294.853 52.8095H294.978L295.179 51.8807H296.031V60.7477H296.04ZM294.978 55.0598C294.978 54.265 294.786 53.6522 294.413 53.2309C294.039 52.8095 293.541 52.5989 292.928 52.5989C292.315 52.5989 291.827 52.8095 291.454 53.2309C291.08 53.6522 290.889 54.265 290.889 55.0598C290.889 55.8546 291.08 56.4579 291.454 56.8888C291.827 57.3101 292.325 57.5208 292.928 57.5208C293.532 57.5208 294.03 57.3101 294.413 56.8888C294.796 56.4579 294.978 55.8546 294.978 55.0598Z" fill="#173035"/>
<path d="M303.519 58.239H302.446V57.3484H302.322C302.245 57.4729 302.13 57.6261 301.967 57.7889C301.805 57.9517 301.584 58.0953 301.297 58.2102C301.01 58.3252 300.646 58.3922 300.196 58.3922C299.487 58.3922 298.903 58.2007 298.463 57.8272C298.013 57.4442 297.792 56.8696 297.792 56.1036V51.8712H298.894V55.9887C298.894 56.5249 299.037 56.9175 299.324 57.1665C299.612 57.4155 299.985 57.5304 300.445 57.5304C300.799 57.5304 301.125 57.4538 301.422 57.3101C301.718 57.1569 301.958 56.9271 302.14 56.6207C302.322 56.3143 302.408 55.9217 302.408 55.4429V51.8808H303.509V58.239H303.519Z" fill="#173035"/>
<path d="M305.252 53.8341V53.6426C305.32 53.0489 305.597 52.5797 306.086 52.235C306.574 51.8902 307.225 51.7179 308.049 51.7179C308.862 51.7179 309.504 51.9094 309.964 52.2828C310.423 52.6563 310.663 53.25 310.663 54.0448V58.2389H309.629V57.3292H309.504C309.408 57.5015 309.274 57.6643 309.102 57.8271C308.92 57.9899 308.69 58.124 308.393 58.2293C308.096 58.3346 307.723 58.3825 307.263 58.3825C306.583 58.3825 306.038 58.2197 305.607 57.8846C305.176 57.559 304.965 57.0898 304.965 56.4866C304.965 56.0748 305.061 55.7397 305.252 55.4715C305.444 55.213 305.712 55.0023 306.057 54.8587C306.392 54.715 306.785 54.6193 307.215 54.5618L309.609 54.265V53.9777C309.609 53.4606 309.475 53.0968 309.207 52.867C308.939 52.6372 308.547 52.5318 308.029 52.5318C307.512 52.5318 307.101 52.6371 306.804 52.8478C306.507 53.0585 306.335 53.3841 306.287 53.8245H305.252V53.8341ZM306.047 56.4674C306.047 56.8121 306.172 57.0802 306.43 57.2717C306.689 57.4632 307.034 57.559 307.464 57.559C307.847 57.559 308.202 57.4824 308.527 57.3388C308.853 57.1951 309.111 56.9653 309.303 56.6589C309.494 56.3525 309.59 55.9503 309.59 55.4715V55.0885L307.407 55.3662C306.986 55.4236 306.66 55.5386 306.411 55.7013C306.172 55.8546 306.047 56.1131 306.047 56.4674Z" fill="#173035"/>
<path d="M312.424 51.8711H313.496V52.7713H313.621C313.697 52.6372 313.812 52.4935 313.975 52.3308C314.138 52.168 314.358 52.0339 314.645 51.9095C314.933 51.785 315.296 51.7275 315.756 51.7275C316.465 51.7275 317.039 51.919 317.489 52.2925C317.939 52.6755 318.169 53.25 318.169 54.0161V58.2485H317.068V54.131C317.068 53.5947 316.924 53.2117 316.637 52.9628C316.35 52.7138 315.967 52.5893 315.507 52.5893C315.162 52.5893 314.837 52.6659 314.54 52.8191C314.243 52.9723 314.004 53.2021 313.822 53.5086C313.64 53.815 313.544 54.2076 313.544 54.6864V58.2485H312.443V51.8711H312.424Z" fill="#173035"/>
<path d="M319.05 51.871H320.611V50.1186H321.712V51.871H323.618V52.6945H321.712V57.2908L321.808 57.3865H323.599V58.2388H322.248C321.722 58.2388 321.32 58.1047 321.032 57.8462C320.745 57.5876 320.611 57.195 320.611 56.6779V52.6849H319.05V51.871Z" fill="#173035"/>
<path d="M330.609 58.239H329.536V57.3484H329.412C329.335 57.4729 329.22 57.6261 329.057 57.7889C328.895 57.9517 328.674 58.0953 328.387 58.2102C328.1 58.3252 327.736 58.3922 327.286 58.3922C326.577 58.3922 325.993 58.2007 325.553 57.8272C325.103 57.4442 324.882 56.8696 324.882 56.1036V51.8712H325.984V55.9887C325.984 56.5249 326.127 56.9175 326.415 57.1665C326.702 57.4155 327.075 57.5304 327.535 57.5304C327.889 57.5304 328.215 57.4538 328.512 57.3101C328.808 57.1569 329.048 56.9271 329.23 56.6207C329.412 56.3143 329.498 55.9217 329.498 55.4429V51.8808H330.599V58.239H330.609Z" fill="#173035"/>
<path d="M332.428 51.8711H333.501V52.618H333.625C333.721 52.484 333.836 52.3404 333.979 52.2063C334.123 52.0722 334.324 51.9573 334.563 51.8616C334.803 51.7658 335.128 51.7275 335.511 51.7275C336.076 51.7275 336.498 51.8424 336.785 52.0722C337.072 52.302 337.283 52.551 337.407 52.8191H337.532C337.695 52.5319 337.924 52.2829 338.24 52.0626C338.556 51.8424 339.016 51.7275 339.638 51.7275C340.251 51.7275 340.759 51.8999 341.171 52.2542C341.582 52.5989 341.783 53.1447 341.783 53.882V58.2485H340.682V53.9299C340.682 53.5181 340.567 53.1926 340.347 52.9532C340.127 52.7138 339.792 52.5893 339.351 52.5893C338.853 52.5893 338.451 52.7425 338.126 53.0394C337.81 53.3458 337.647 53.8054 337.647 54.4183V58.2389H336.546V53.9203C336.546 53.5086 336.44 53.183 336.22 52.9436C336 52.7042 335.665 52.5797 335.215 52.5797C334.726 52.5797 334.314 52.7329 333.998 53.0298C333.682 53.3362 333.52 53.7958 333.52 54.4087V58.2293H332.418V51.8711H332.428Z" fill="#173035"/>
<path d="M346.877 51.8712H347.949V52.6947H348.074C348.179 52.4553 348.351 52.2542 348.581 52.0914C348.811 51.9286 349.165 51.852 349.644 51.852H350.506V52.7521H349.644C349.05 52.7521 348.619 52.9149 348.361 53.2501C348.102 53.5852 347.978 54.0736 347.978 54.7247V58.2581H346.877V51.8712Z" fill="#173035"/>
<path d="M351.11 55.0502C351.11 53.9682 351.387 53.1351 351.952 52.5701C352.517 52.0051 353.264 51.7179 354.203 51.7179C355.151 51.7179 355.878 51.9956 356.386 52.5414C356.893 53.0872 357.142 53.8341 357.142 54.7725V55.2896H352.173C352.182 55.9886 352.374 56.544 352.728 56.9557C353.082 57.3675 353.58 57.5686 354.193 57.5686C354.586 57.5686 354.911 57.5016 355.17 57.3675C355.428 57.2334 355.62 57.0611 355.763 56.86C355.897 56.6589 355.984 56.4578 356.022 56.2567H357.008V56.4482C356.97 56.6493 356.893 56.8504 356.769 57.0802C356.644 57.3101 356.482 57.5207 356.261 57.7218C356.041 57.9229 355.763 58.0857 355.428 58.2197C355.093 58.3442 354.681 58.4112 354.212 58.4112C353.274 58.4112 352.517 58.124 351.952 57.5494C351.397 56.9653 351.11 56.1323 351.11 55.0502ZM352.192 54.4852H356.089C356.089 53.9011 355.926 53.4415 355.601 53.0872C355.285 52.7329 354.815 52.551 354.193 52.551C353.58 52.551 353.111 52.7329 352.766 53.0872C352.431 53.4415 352.24 53.9011 352.192 54.4852Z" fill="#173035"/>
<path d="M358.492 53.8341V53.6426C358.559 53.0489 358.837 52.5797 359.325 52.235C359.814 51.8902 360.465 51.7179 361.288 51.7179C362.102 51.7179 362.744 51.9094 363.203 52.2828C363.663 52.6563 363.902 53.25 363.902 54.0448V58.2389H362.868V57.3292H362.744C362.648 57.5015 362.514 57.6643 362.342 57.8271C362.16 57.9899 361.93 58.124 361.633 58.2293C361.336 58.3346 360.963 58.3825 360.503 58.3825C359.823 58.3825 359.277 58.2197 358.846 57.8846C358.416 57.559 358.205 57.0898 358.205 56.4866C358.205 56.0748 358.301 55.7397 358.492 55.4715C358.684 55.213 358.952 55.0023 359.296 54.8587C359.632 54.715 360.024 54.6193 360.455 54.5618L362.849 54.265V53.9777C362.849 53.4606 362.715 53.0968 362.447 52.867C362.179 52.6372 361.786 52.5318 361.269 52.5318C360.752 52.5318 360.34 52.6371 360.043 52.8478C359.747 53.0585 359.574 53.3841 359.526 53.8245H358.492V53.8341ZM359.287 56.4674C359.287 56.8121 359.411 57.0802 359.67 57.2717C359.928 57.4632 360.273 57.559 360.704 57.559C361.087 57.559 361.441 57.4824 361.767 57.3388C362.093 57.1951 362.351 56.9653 362.543 56.6589C362.734 56.3525 362.83 55.9503 362.83 55.4715V55.0885L360.647 55.3662C360.225 55.4236 359.9 55.5386 359.651 55.7013C359.411 55.8546 359.287 56.1131 359.287 56.4674Z" fill="#173035"/>
<path d="M365.665 49.2283H366.766V58.239H365.665V49.2283Z" fill="#173035"/>
<path d="M368.509 49.5729H369.783V50.7794H368.509V49.5729ZM368.586 51.8711H369.687V58.2484H368.586V51.8711Z" fill="#173035"/>
<path d="M370.826 51.871H372.387V50.1186H373.488V51.871H375.394V52.6945H373.488V57.2908L373.584 57.3865H375.375V58.2388H374.024C373.498 58.2388 373.096 58.1047 372.808 57.8462C372.521 57.5876 372.387 57.195 372.387 56.6779V52.6849H370.826V51.871Z" fill="#173035"/>
<path d="M376.063 51.8712H377.184L379.156 56.8984H379.281L381.253 51.8712H382.345V52.0627L378.745 60.7574H377.653V60.5658L378.639 58.2581L376.073 52.0627V51.8712H376.063Z" fill="#173035"/>
<path d="M244.322 54.9738C239.86 54.9738 237.179 52.9629 237.179 49.688C237.179 45.8961 240.674 43.9618 247.367 43.9618H253.687V45.2258C253.543 51.4691 250.125 54.9738 244.322 54.9738ZM233.234 37.1152H238.443C238.96 33.3233 241.718 31.3124 246.18 31.3124C250.939 31.3124 253.697 33.5435 253.697 37.3355V39.8634H249.378C237.926 39.8634 231.816 43.3585 231.816 49.9083C231.816 55.4908 236.202 58.986 243.345 58.986C248.401 58.986 252.126 57.2049 253.764 53.93V58.172L253.84 58.2486H258.973V38.7527C258.973 31.2358 254.807 27.3002 246.697 27.3002C238.893 27.2906 233.827 31.0156 233.234 37.1152ZM144.41 54.9738C139.948 54.9738 137.267 52.9629 137.267 49.688C137.267 45.8961 140.762 43.9618 147.455 43.9618H153.775V45.2258C153.631 51.4691 150.213 54.9738 144.41 54.9738ZM133.321 37.1152H138.531C139.048 33.3233 141.805 31.3124 146.268 31.3124C151.027 31.3124 153.785 33.5435 153.785 37.3355V39.8634H149.466C138.014 39.8634 131.904 43.3585 131.904 49.9083C131.904 55.4908 136.29 58.986 143.433 58.986C148.489 58.986 152.214 57.2049 153.852 53.93V58.172L153.928 58.2486H159.061V38.7527C159.061 31.2358 154.895 27.3002 146.785 27.3002C138.981 27.2906 133.915 31.0156 133.321 37.1152ZM220.364 43.2149C220.364 35.7746 216.869 31.389 210.989 31.389C204.966 31.389 201.098 36.0045 201.098 43.2149C201.098 50.3583 204.966 54.9738 210.922 54.9738C216.869 54.9738 220.364 50.5786 220.364 43.2149ZM210.319 27.3673C214.781 27.3673 218.353 29.2249 220.144 32.4998V28.1141H225.353V70.8119H220.364L220.144 70.6586V53.8534C217.759 57.3485 214.561 58.986 210.099 58.986C201.471 58.986 195.745 52.8097 195.745 43.3681C195.745 33.8404 201.615 27.3673 210.319 27.3673ZM165.764 36.3683C165.764 30.8623 170.523 27.3673 178.116 27.3673C185.7 27.3673 190.612 30.8623 191.206 36.7418H185.997C185.25 33.1701 182.722 31.389 178.337 31.389C173.951 31.389 171.116 33.103 171.116 35.7746C171.116 38.0824 173.051 39.5666 176.919 40.2369L182.128 41.1274C188.525 42.2478 191.647 45.0726 191.647 49.7551C191.647 55.5579 186.964 58.9764 178.921 58.9764C170.59 58.9764 165.534 55.3281 164.787 48.9315H169.996C170.81 52.8767 173.865 54.9546 178.854 54.9546C183.536 54.9546 186.294 53.097 186.294 49.9657C186.294 47.5144 184.436 46.0972 180.347 45.4269L175.062 44.5363C168.809 43.2915 165.764 40.6103 165.764 36.3683ZM101.703 20.4536V37.4121H114.199C120.155 37.4121 123.353 34.5106 123.353 29.0813C123.353 23.4987 120.078 20.4536 114.199 20.4536H101.703ZM96.1298 58.2391V15.7616H114.955C123.66 15.7616 129.089 20.8175 129.089 29.0047C129.089 37.0386 123.66 42.0946 115.032 42.0946H101.712V58.2391H96.1298ZM267.16 58.2391H272.369V15.7616H267.16V58.2391Z" fill="#173035"/>
<path d="M37.0003 33.7828C35.2192 33.7828 33.7733 35.2287 33.7733 37.0098C33.7733 38.7908 35.2192 40.2368 37.0003 40.2368C38.7814 40.2368 40.2273 38.7908 40.2273 37.0098C40.2273 35.2191 38.7814 33.7828 37.0003 33.7828Z" fill="#173035"/>
<path d="M37.0003 51.9765C35.2192 51.9765 33.7733 53.4224 33.7733 55.2035C33.7733 56.9845 35.2192 58.4305 37.0003 58.4305C38.7814 58.4305 40.2273 56.9845 40.2273 55.2035C40.2273 53.4224 38.7814 51.9765 37.0003 51.9765Z" fill="#173035"/>
<path d="M35.9089 67.7572L30.9008 62.7491C31.3126 61.6096 31.0732 60.2882 30.1539 59.3785C28.89 58.1145 26.8503 58.1145 25.5959 59.3785C24.332 60.6425 24.332 62.6821 25.5959 63.9365C26.5056 64.8462 27.8271 65.0952 28.9666 64.6834L33.9746 69.6915C33.5628 70.831 33.8022 72.1524 34.7215 73.0621C35.9855 74.3261 38.0251 74.3261 39.2795 73.0621C40.5435 71.7981 40.5435 69.7585 39.2795 68.5041C38.3698 67.5848 37.0484 67.3454 35.9089 67.7572Z" fill="#173035"/>
<path d="M26.4092 47.5908C25.1452 46.3268 23.1056 46.3268 21.8512 47.5908C20.5872 48.8548 20.5872 50.8944 21.8512 52.1488C23.1152 53.4128 25.1548 53.4128 26.4092 52.1488C27.6732 50.8944 27.6732 48.8548 26.4092 47.5908Z" fill="#173035"/>
<path d="M16.3453 47.9834C16.3453 46.2023 14.8994 44.7564 13.1183 44.7564C11.3373 44.7564 9.89136 46.2023 9.89136 47.9834C9.89136 49.2761 10.6574 50.3773 11.749 50.8944V57.9708C10.6574 58.4879 9.89136 59.5891 9.89136 60.8818C9.89136 62.6628 11.3373 64.1088 13.1183 64.1088C14.8994 64.1088 16.3453 62.6628 16.3453 60.8818C16.3453 59.5891 15.5793 58.4879 14.4877 57.9708V50.8944C15.5793 50.3773 16.3453 49.2761 16.3453 47.9834Z" fill="#173035"/>
<path d="M22.0235 37.0003C22.0235 35.2192 20.5776 33.7733 18.7966 33.7733C17.0155 33.7733 15.5696 35.2192 15.5696 37.0003C15.5696 38.7814 17.0155 40.2273 18.7966 40.2273C20.5776 40.2273 22.0235 38.7814 22.0235 37.0003Z" fill="#173035"/>
<path d="M11.2609 30.9006C12.4004 31.3124 13.7219 31.073 14.6315 30.1537C15.8955 28.8897 15.8955 26.8501 14.6315 25.5957C13.3676 24.3317 11.328 24.3317 10.0736 25.5957C9.16387 26.5054 8.91491 27.8268 9.32666 28.9663L4.3186 33.9744C3.1791 33.5626 1.85767 33.802 0.947987 34.7213C-0.315996 35.9853 -0.315996 38.0249 0.947987 39.2793C2.21197 40.5433 4.25157 40.5433 5.50598 39.2793C6.41566 38.3696 6.66463 37.0482 6.25288 35.9087L11.2609 30.9006Z" fill="#173035"/>
<path d="M34.7213 16.518C33.4573 17.782 33.4573 19.8216 34.7213 21.076C35.9853 22.34 38.0249 22.34 39.2793 21.076C40.5433 19.812 40.5433 17.7724 39.2793 16.518C38.0249 15.254 35.9853 15.254 34.7213 16.518Z" fill="#173035"/>
<path d="M21.8512 21.8517C20.5872 23.1156 20.5872 25.1553 21.8512 26.4097C23.1152 27.6736 25.1548 27.6736 26.4092 26.4097C27.6732 25.1457 27.6732 23.1061 26.4092 21.8517C25.1548 20.5877 23.1056 20.5877 21.8512 21.8517Z" fill="#173035"/>
<path d="M13.1183 16.3457C14.4111 16.3457 15.5123 15.5796 16.0293 14.488H23.1057C23.6228 15.5796 24.724 16.3457 26.0167 16.3457C27.7978 16.3457 29.2437 14.8998 29.2437 13.1187C29.2437 11.3376 27.7978 9.89171 26.0167 9.89171C24.724 9.89171 23.6228 10.6578 23.1057 11.7494H16.0293C15.5123 10.6578 14.4111 9.89171 13.1183 9.89171C11.3373 9.89171 9.89136 11.3376 9.89136 13.1187C9.89136 14.8998 11.3373 16.3457 13.1183 16.3457Z" fill="#173035"/>
<path d="M48.4049 14.6315C49.6689 13.3676 49.6689 11.328 48.4049 10.0736C47.4952 9.16387 46.1738 8.91491 45.0343 9.32666L40.0262 4.3186C40.438 3.1791 40.1986 1.85767 39.2793 0.947987C38.0153 -0.315996 35.9757 -0.315996 34.7213 0.947987C33.4573 2.21197 33.4573 4.25156 34.7213 5.50596C35.631 6.41565 36.9524 6.66461 38.0919 6.25286L43.1 11.2609C42.6882 12.4004 42.9276 13.7218 43.8469 14.6315C45.1013 15.8955 47.1505 15.8955 48.4049 14.6315Z" fill="#173035"/>
<path d="M47.6005 26.4191C48.8644 27.6831 50.904 27.6831 52.1584 26.4191C53.4224 25.1551 53.4224 23.1155 52.1584 21.8611C50.8945 20.5972 48.8549 20.5972 47.6005 21.8611C46.3365 23.1155 46.3365 25.1551 47.6005 26.4191Z" fill="#173035"/>
<path d="M57.6643 26.0266C57.6643 27.8077 59.1102 29.2536 60.8913 29.2536C62.6724 29.2536 64.1183 27.8077 64.1183 26.0266C64.1183 24.7339 63.3522 23.6327 62.2606 23.1156V16.0392C63.3522 15.5221 64.1183 14.4209 64.1183 13.1282C64.1183 11.3472 62.6724 9.90123 60.8913 9.90123C59.1102 9.90123 57.6643 11.3472 57.6643 13.1282C57.6643 14.4209 58.4304 15.5221 59.522 16.0392V23.1156C58.4304 23.6327 57.6643 24.7339 57.6643 26.0266Z" fill="#173035"/>
<path d="M51.9861 37.0098C51.9861 38.7908 53.432 40.2368 55.2131 40.2368C56.9941 40.2368 58.44 38.7908 58.44 37.0098C58.44 35.2287 56.9941 33.7828 55.2131 33.7828C53.432 33.7828 51.9861 35.2191 51.9861 37.0098Z" fill="#173035"/>
<path d="M73.0619 34.7213C71.7979 33.4573 69.7583 33.4573 68.5039 34.7213C67.5942 35.631 67.3452 36.9524 67.757 38.0919L62.7489 43.1C61.6094 42.6882 60.288 42.9276 59.3783 43.8469C58.1143 45.1109 58.1143 47.1505 59.3783 48.4049C60.6423 49.6689 62.6819 49.6689 63.9363 48.4049C64.846 47.4952 65.0949 46.1737 64.6832 45.0342L69.6912 40.0262C70.8307 40.438 72.1522 40.1986 73.0619 39.2793C74.3258 38.0249 74.3258 35.9853 73.0619 34.7213Z" fill="#173035"/>
<path d="M47.6005 47.6004C46.3365 48.8644 46.3365 50.904 47.6005 52.1584C48.8644 53.4224 50.904 53.4224 52.1584 52.1584C53.4224 50.8944 53.4224 48.8548 52.1584 47.6004C50.8945 46.3364 48.8549 46.3364 47.6005 47.6004Z" fill="#173035"/>
<path d="M60.8913 57.6644C59.5986 57.6644 58.4974 58.4305 57.9804 59.5221H50.904C50.3869 58.4305 49.2857 57.6644 47.993 57.6644C46.2119 57.6644 44.766 59.1103 44.766 60.8914C44.766 62.6725 46.2119 64.1184 47.993 64.1184C49.2857 64.1184 50.3869 63.3524 50.904 62.2607H57.9804C58.4974 63.3524 59.5986 64.1184 60.8913 64.1184C62.6724 64.1184 64.1183 62.6725 64.1183 60.8914C64.1183 59.1103 62.6724 57.6644 60.8913 57.6644Z" fill="#173035"/>
</svg>
